<svg width="90" height="28" viewBox="0 0 90 28" fill="none" xmlns="http://www.w3.org/2000/svg">
<path d="M34.1396 16.2922L35.7324 9.34692H36.6279L36.1562 12.0471L34.4268 19.3H33.5312L34.1396 16.2922ZM32.5674 9.34692L33.8115 16.1555L34.1807 19.3H33.2988L31.3164 9.34692H32.5674ZM38.6582 16.1487L39.875 9.34692H41.126L39.1504 19.3H38.2686L38.6582 16.1487ZM36.7715 9.34692L38.3164 16.2922L38.9111 19.3H38.0156L36.3613 12.0471L35.8896 9.34692H36.7715ZM45.7949 18.0354V14.0227C45.7949 13.731 45.7493 13.4963 45.6582 13.3186C45.5716 13.1409 45.4394 13.011 45.2617 12.929C45.0885 12.8469 44.8698 12.8059 44.6055 12.8059C44.3503 12.8059 44.1292 12.8583 43.9424 12.9631C43.7601 13.068 43.6188 13.2069 43.5186 13.3801C43.4228 13.5533 43.375 13.7447 43.375 13.9543H42.165C42.165 13.69 42.222 13.428 42.3359 13.1682C42.4544 12.9084 42.623 12.6737 42.8418 12.4641C43.0605 12.2499 43.3226 12.0813 43.6279 11.9583C43.9378 11.8306 44.2842 11.7668 44.667 11.7668C45.1227 11.7668 45.526 11.842 45.8769 11.9924C46.2279 12.1383 46.5036 12.3775 46.7041 12.7102C46.9046 13.0429 47.0049 13.4849 47.0049 14.0364V17.6868C47.0049 17.9329 47.0231 18.1949 47.0596 18.4729C47.1006 18.7509 47.1575 18.9902 47.2305 19.1907V19.3H45.9795C45.9202 19.1542 45.8747 18.9605 45.8428 18.719C45.8109 18.4729 45.7949 18.245 45.7949 18.0354ZM45.9863 14.8157L46 15.7043H45.1592C44.8721 15.7043 44.61 15.7362 44.373 15.8C44.1406 15.8639 43.9401 15.9573 43.7715 16.0803C43.6029 16.1988 43.473 16.3469 43.3818 16.5247C43.2952 16.7024 43.2519 16.9052 43.2519 17.1331C43.2519 17.4293 43.293 17.6663 43.375 17.844C43.457 18.0172 43.5801 18.1425 43.7441 18.22C43.9082 18.2974 44.1156 18.3362 44.3662 18.3362C44.6715 18.3362 44.9404 18.2655 45.1728 18.1243C45.4053 17.983 45.5853 17.8121 45.7129 17.6116C45.845 17.4111 45.9066 17.2242 45.8975 17.051L46.1641 17.6184C46.1458 17.7961 46.0866 17.9898 45.9863 18.1995C45.8906 18.4045 45.7562 18.6028 45.583 18.7942C45.4098 18.981 45.2047 19.136 44.9678 19.259C44.7353 19.3775 44.4733 19.4368 44.1816 19.4368C43.7533 19.4368 43.3773 19.3547 43.0537 19.1907C42.7347 19.0266 42.4863 18.7851 42.3086 18.4661C42.1309 18.1471 42.042 17.7528 42.042 17.2834C42.042 16.928 42.1035 16.5999 42.2266 16.2991C42.3496 15.9983 42.5319 15.7385 42.7734 15.5198C43.015 15.2965 43.318 15.1233 43.6826 15.0002C44.0518 14.8772 44.4779 14.8157 44.9609 14.8157H45.9863ZM51.585 11.9036V12.8743H48.1328V11.9036H51.585ZM49.2607 10.1057H50.4707V17.468C50.4707 17.7187 50.5003 17.9078 50.5596 18.0354C50.6234 18.163 50.7031 18.2473 50.7988 18.2883C50.8945 18.3293 50.9971 18.3499 51.1064 18.3499C51.1885 18.3499 51.2796 18.3407 51.3799 18.3225C51.4801 18.2997 51.5485 18.2815 51.585 18.2678L51.5781 19.3C51.4961 19.3319 51.3867 19.3616 51.25 19.3889C51.1133 19.4208 50.9401 19.4368 50.7305 19.4368C50.4707 19.4368 50.2292 19.3752 50.0059 19.2522C49.7825 19.1292 49.6025 18.9241 49.4658 18.637C49.3291 18.3453 49.2607 17.9534 49.2607 17.4612V10.1057ZM55.5908 18.4045C55.8324 18.4045 56.0511 18.3567 56.2471 18.261C56.4476 18.1607 56.6116 18.0058 56.7393 17.7961C56.8669 17.5819 56.9398 17.304 56.958 16.9622H58.0928C58.0745 17.4543 57.9492 17.8873 57.7168 18.261C57.4889 18.6301 57.1881 18.9195 56.8144 19.1292C56.4453 19.3342 56.0374 19.4368 55.5908 19.4368C55.1123 19.4368 54.6953 19.3593 54.3398 19.2043C53.9889 19.0494 53.6973 18.8261 53.4648 18.5344C53.237 18.2382 53.0661 17.8805 52.9521 17.4612C52.8382 17.0374 52.7812 16.5566 52.7812 16.0188V15.1848C52.7812 14.6471 52.8382 14.1685 52.9521 13.7493C53.0661 13.3254 53.237 12.9677 53.4648 12.676C53.6973 12.3798 53.9889 12.1542 54.3398 11.9993C54.6953 11.8443 55.1123 11.7668 55.5908 11.7668C56.0921 11.7668 56.5251 11.8739 56.8896 12.0881C57.2588 12.2978 57.5459 12.6031 57.751 13.0042C57.9606 13.4006 58.0745 13.8814 58.0928 14.4465H56.958C56.9398 14.0819 56.8737 13.7789 56.7598 13.5374C56.6458 13.2913 56.4909 13.109 56.2949 12.9905C56.099 12.8674 55.8643 12.8059 55.5908 12.8059C55.2718 12.8059 55.0075 12.8629 54.7978 12.9768C54.5928 13.0862 54.431 13.2457 54.3125 13.4553C54.194 13.665 54.1097 13.9156 54.0596 14.2073C54.014 14.4989 53.9912 14.8248 53.9912 15.1848V16.0188C53.9912 16.3788 54.014 16.7069 54.0596 17.0032C54.1097 17.2948 54.1917 17.5455 54.3057 17.7551C54.4241 17.9648 54.5882 18.1265 54.7978 18.2405C55.0075 18.3499 55.2718 18.4045 55.5908 18.4045ZM60.7041 8.80005V19.3H59.4941V8.80005H60.7041ZM60.4102 15.3215L59.918 15.301C59.9134 14.7952 59.9704 14.328 60.0889 13.8997C60.2119 13.4667 60.3851 13.0907 60.6084 12.7717C60.8363 12.4527 61.1074 12.2066 61.4219 12.0334C61.7363 11.8557 62.085 11.7668 62.4678 11.7668C62.7686 11.7668 63.042 11.817 63.2881 11.9172C63.5342 12.0129 63.7438 12.1679 63.917 12.3821C64.0902 12.5963 64.2223 12.8743 64.3135 13.2161C64.4092 13.5533 64.457 13.9657 64.457 14.4534V19.3H63.2471V14.4397C63.2471 14.0523 63.2038 13.7424 63.1172 13.51C63.0352 13.273 62.9075 13.1021 62.7344 12.9973C62.5658 12.8879 62.3516 12.8333 62.0918 12.8333C61.8548 12.8333 61.6338 12.8993 61.4287 13.0315C61.2236 13.1637 61.0436 13.3459 60.8887 13.5784C60.7383 13.8108 60.6198 14.0774 60.5332 14.3782C60.4512 14.6744 60.4102 14.9889 60.4102 15.3215ZM67.6836 9.34692V19.3H66.4258V9.34692H67.6836ZM71.04 13.8245V14.9045H67.4443V13.8245H71.04ZM71.6074 9.34692V10.427H67.4443V9.34692H71.6074ZM74.0342 13.0657V19.3H72.8242V11.9036H73.9932L74.0342 13.0657ZM75.873 11.8625L75.8799 13.0383C75.7796 13.0155 75.6885 13.0019 75.6064 12.9973C75.529 12.9882 75.4378 12.9836 75.333 12.9836C75.1051 12.9836 74.9046 13.0292 74.7314 13.1204C74.5628 13.2115 74.417 13.3391 74.2939 13.5032C74.1709 13.6672 74.0729 13.8632 74 14.0911C73.9271 14.3144 73.8769 14.5605 73.8496 14.8293L73.5352 15.0344C73.5352 14.5878 73.5693 14.1685 73.6377 13.7766C73.7106 13.3847 73.8223 13.0383 73.9727 12.7375C74.123 12.4322 74.3144 12.1952 74.5469 12.0266C74.7839 11.8534 75.0664 11.7668 75.3945 11.7668C75.4674 11.7668 75.5563 11.7782 75.6611 11.801C75.7705 11.8193 75.8411 11.8398 75.873 11.8625ZM79.5986 19.4368C79.1566 19.4368 78.7578 19.3707 78.4023 19.2385C78.0469 19.1064 77.7438 18.9058 77.4932 18.637C77.2425 18.3635 77.0511 18.0194 76.9189 17.6047C76.7868 17.19 76.7207 16.7001 76.7207 16.135V15.301C76.7207 14.6493 76.7959 14.0979 76.9463 13.6467C77.1012 13.1956 77.3086 12.8333 77.5684 12.5598C77.8281 12.2818 78.1221 12.0813 78.4502 11.9583C78.7783 11.8306 79.1156 11.7668 79.4619 11.7668C79.9268 11.7668 80.3232 11.842 80.6514 11.9924C80.9795 12.1428 81.2461 12.3661 81.4512 12.6624C81.6562 12.9586 81.8066 13.3232 81.9023 13.7561C82.0026 14.189 82.0527 14.6881 82.0527 15.2532V15.9573H77.4316V14.925H80.8428V14.7542C80.8245 14.3713 80.7721 14.0341 80.6855 13.7424C80.6035 13.4508 80.4668 13.2229 80.2754 13.0588C80.084 12.8902 79.8128 12.8059 79.4619 12.8059C79.2386 12.8059 79.0312 12.8446 78.8398 12.9221C78.653 12.995 78.4912 13.1249 78.3545 13.3118C78.2223 13.4941 78.1175 13.747 78.04 14.0706C77.9671 14.3941 77.9307 14.8043 77.9307 15.301V16.135C77.9307 16.5315 77.9671 16.8733 78.04 17.1604C78.1175 17.443 78.2292 17.6777 78.375 17.8645C78.5254 18.0468 78.7077 18.1835 78.9219 18.2747C79.1406 18.3612 79.389 18.4045 79.667 18.4045C80.0726 18.4045 80.4075 18.3271 80.6719 18.1721C80.9362 18.0126 81.1663 17.8098 81.3623 17.5637L81.998 18.3225C81.8659 18.5094 81.6927 18.6894 81.4785 18.8625C81.2689 19.0312 81.0091 19.1702 80.6992 19.2795C80.3939 19.3844 80.027 19.4368 79.5986 19.4368ZM86.1611 19.4368C85.7191 19.4368 85.3203 19.3707 84.9648 19.2385C84.6094 19.1064 84.3063 18.9058 84.0557 18.637C83.805 18.3635 83.6136 18.0194 83.4814 17.6047C83.3493 17.19 83.2832 16.7001 83.2832 16.135V15.301C83.2832 14.6493 83.3584 14.0979 83.5088 13.6467C83.6637 13.1956 83.8711 12.8333 84.1309 12.5598C84.3906 12.2818 84.6846 12.0813 85.0127 11.9583C85.3408 11.8306 85.6781 11.7668 86.0244 11.7668C86.4893 11.7668 86.8857 11.842 87.2139 11.9924C87.542 12.1428 87.8086 12.3661 88.0137 12.6624C88.2187 12.9586 88.3691 13.3232 88.4648 13.7561C88.5651 14.189 88.6152 14.6881 88.6152 15.2532V15.9573H83.9941V14.925H87.4053V14.7542C87.387 14.3713 87.3346 14.0341 87.248 13.7424C87.166 13.4508 87.0293 13.2229 86.8379 13.0588C86.6465 12.8902 86.3753 12.8059 86.0244 12.8059C85.8011 12.8059 85.5937 12.8446 85.4023 12.9221C85.2155 12.995 85.0537 13.1249 84.917 13.3118C84.7848 13.4941 84.68 13.747 84.6025 14.0706C84.5296 14.3941 84.4932 14.8043 84.4932 15.301V16.135C84.4932 16.5315 84.5296 16.8733 84.6025 17.1604C84.68 17.443 84.7917 17.6777 84.9375 17.8645C85.0879 18.0468 85.2702 18.1835 85.4844 18.2747C85.7031 18.3612 85.9515 18.4045 86.2295 18.4045C86.6351 18.4045 86.97 18.3271 87.2344 18.1721C87.4987 18.0126 87.7288 17.8098 87.9248 17.5637L88.5605 18.3225C88.4284 18.5094 88.2552 18.6894 88.041 18.8625C87.8314 19.0312 87.5716 19.1702 87.2617 19.2795C86.9564 19.3844 86.5895 19.4368 86.1611 19.4368Z" fill="white"/>
<ellipse cx="14.2857" cy="14" rx="14.2857" ry="14" fill="white"/>
<path d="M12.8571 8.40002H10V19.6H12.8571V8.40002Z" fill="black"/>
<path d="M18.5714 8.40002H15.7143V19.6H18.5714V8.40002Z" fill="black"/>
</svg>
